<svg id="visual" width='1526' height='763' viewBox='0 0 1600 800' xmlns="http://www.w3.org/2000/svg" xmlns:xlink="http://www.w3.org/1999/xlink" version="1.1"><rect x="0" y="0" width="900" height="600" fill="#280007"></rect><defs><linearGradient id="grad1_0" x1="33.3%" y1="0%" x2="100%" y2="100%"><stop offset="20%" stop-color="#fbae3c" stop-opacity="1"></stop><stop offset="80%" stop-color="#fbae3c" stop-opacity="1"></stop></linearGradient></defs><defs><linearGradient id="grad1_1" x1="33.3%" y1="0%" x2="100%" y2="100%"><stop offset="20%" stop-color="#fbae3c" stop-opacity="1"></stop><stop offset="80%" stop-color="#994730" stop-opacity="1"></stop></linearGradient></defs><defs><linearGradient id="grad1_2" x1="33.3%" y1="0%" x2="100%" y2="100%"><stop offset="20%" stop-color="#280007" stop-opacity="1"></stop><stop offset="80%" stop-color="#994730" stop-opacity="1"></stop></linearGradient></defs><defs><linearGradient id="grad2_0" x1="0%" y1="0%" x2="66.7%" y2="100%"><stop offset="20%" stop-color="#fbae3c" stop-opacity="1"></stop><stop offset="80%" stop-color="#fbae3c" stop-opacity="1"></stop></linearGradient></defs><defs><linearGradient id="grad2_1" x1="0%" y1="0%" x2="66.7%" y2="100%"><stop offset="20%" stop-color="#994730" stop-opacity="1"></stop><stop offset="80%" stop-color="#fbae3c" stop-opacity="1"></stop></linearGradient></defs><defs><linearGradient id="grad2_2" x1="0%" y1="0%" x2="66.7%" y2="100%"><stop offset="20%" stop-color="#994730" stop-opacity="1"></stop><stop offset="80%" stop-color="#280007" stop-opacity="1"></stop></linearGradient></defs><g transform="translate(900, 0)"><path d="M0 351.5C-24.5 353 -49 354.5 -67.9 341.3C-86.8 328.1 -100 300.1 -120.9 291.9C-141.9 283.8 -170.6 295.4 -195.3 292.3C-220 289.1 -240.6 271.2 -247.5 247.5C-254.4 223.8 -247.6 194.3 -264.4 176.7C-281.2 159 -321.7 153.1 -322.4 133.6C-323.2 114 -284.2 80.7 -282.5 56.2C-280.7 31.6 -316.1 15.8 -351.5 0L0 0Z" fill="#5f2121"></path><path d="M0 234.4C-16.3 235.4 -32.7 236.4 -45.3 227.5C-57.8 218.7 -66.6 200.1 -80.6 194.6C-94.6 189.2 -113.8 197 -130.2 194.9C-146.7 192.8 -160.4 180.8 -165 165C-169.6 149.2 -165.1 129.6 -176.3 117.8C-187.5 106 -214.5 102.1 -215 89C-215.5 76 -189.5 53.8 -188.3 37.5C-187.1 21.1 -210.7 10.5 -234.4 0L0 0Z" fill="#cf7738"></path><path d="M0 117.2C-8.2 117.7 -16.3 118.2 -22.6 113.8C-28.9 109.4 -33.3 100 -40.3 97.3C-47.3 94.6 -56.9 98.5 -65.1 97.4C-73.3 96.4 -80.2 90.4 -82.5 82.5C-84.8 74.6 -82.5 64.8 -88.1 58.9C-93.7 53 -107.2 51 -107.5 44.5C-107.7 38 -94.7 26.9 -94.2 18.7C-93.6 10.5 -105.4 5.3 -117.2 0L0 0Z" fill="#fbae3c"></path></g><g transform="translate(0, 600)"><path d="M0 -351.5C21.3 -335.7 42.6 -319.8 60.3 -303.1C77.9 -286.3 91.9 -268.7 105.2 -254.1C118.5 -239.4 131.1 -227.7 145 -217C158.9 -206.4 174 -196.8 186 -186C198 -175.1 206.8 -163 234.5 -156.7C262.1 -150.3 308.5 -149.7 324.8 -134.5C341 -119.4 327.2 -89.8 326.6 -65C326 -40.1 338.8 -20.1 351.5 0L0 0Z" fill="#5f2121"></path><path d="M0 -234.4C14.2 -223.8 28.4 -213.2 40.2 -202C52 -190.9 61.3 -179.2 70.2 -169.4C79 -159.6 87.4 -151.8 96.7 -144.7C105.9 -137.6 116 -131.2 124 -124C132 -116.8 137.9 -108.7 156.3 -104.4C174.7 -100.2 205.7 -99.8 216.5 -89.7C227.4 -79.6 218.1 -59.9 217.7 -43.3C217.4 -26.8 225.9 -13.4 234.4 0L0 0Z" fill="#cf7738"></path><path d="M0 -117.2C7.1 -111.9 14.2 -106.6 20.1 -101C26 -95.4 30.6 -89.6 35.1 -84.7C39.5 -79.8 43.7 -75.9 48.3 -72.3C53 -68.8 58 -65.6 62 -62C66 -58.4 68.9 -54.3 78.2 -52.2C87.4 -50.1 102.8 -49.9 108.3 -44.8C113.7 -39.8 109.1 -29.9 108.9 -21.7C108.7 -13.4 112.9 -6.7 117.2 0L0 0Z" fill="#fbae3c"></path></g></svg>